<svg width="78" height="19" viewBox="0 0 78 19" fill="none" xmlns="http://www.w3.org/2000/svg">
<path d="M5.984 17.528C4.68267 17.5173 3.63733 17.1173 2.848 16.328C2.06933 15.5493 1.68 14.408 1.68 12.904C1.68 11.9973 1.38667 11.3893 0.8 11.08L0.592 11C0.432 10.904 0.32 10.8133 0.256 10.728C0.192 10.632 0.16 10.504 0.16 10.344V9.752C0.16 9.60267 0.192 9.48 0.256 9.384C0.330667 9.288 0.442667 9.19733 0.592 9.112L0.8 9.016C1.38667 8.71733 1.68 8.11467 1.68 7.208C1.68 5.704 2.06933 4.56267 2.848 3.784C3.62667 3.00533 4.66667 2.60533 5.968 2.584H6.064C6.16 2.584 6.24 2.62133 6.304 2.696C6.37867 2.76 6.416 2.84 6.416 2.936V4.392C6.416 4.488 6.384 4.568 6.32 4.632C6.256 4.696 6.18133 4.73333 6.096 4.744H6.032C5.36 4.79733 4.87467 5.032 4.576 5.448C4.288 5.85333 4.144 6.52 4.144 7.448C4.144 8.09867 4.032 8.65867 3.808 9.128C3.59467 9.58667 3.312 9.896 2.96 10.056C3.312 10.216 3.59467 10.536 3.808 11.016C4.032 11.496 4.144 12.0453 4.144 12.664C4.144 13.592 4.288 14.264 4.576 14.68C4.864 15.0853 5.344 15.3147 6.016 15.368L6.096 15.384C6.18133 15.384 6.256 15.416 6.32 15.48C6.384 15.5547 6.416 15.64 6.416 15.736V17.176C6.416 17.2827 6.37867 17.368 6.304 17.432C6.24 17.496 6.16 17.528 6.064 17.528H5.984Z" fill="#5F1CFD"/>
<path d="M8.31688 15C8.21021 15 8.11421 14.9627 8.02888 14.888C7.95421 14.8027 7.91688 14.7067 7.91688 14.6V4.2C7.91688 4.08267 7.95421 3.98667 8.02888 3.912C8.11421 3.83733 8.21021 3.8 8.31688 3.8H12.4769C14.0449 3.8 15.2609 4.17333 16.1249 4.92C16.9889 5.66667 17.4422 6.74933 17.4849 8.168C17.4955 8.47733 17.5009 8.888 17.5009 9.4C17.5009 9.912 17.4955 10.3173 17.4849 10.616C17.4315 12.0987 16.9889 13.2027 16.1569 13.928C15.3355 14.6427 14.1355 15 12.5569 15H8.31688ZM12.4769 12.696C13.1809 12.696 13.6982 12.5307 14.0289 12.2C14.3595 11.8587 14.5355 11.32 14.5569 10.584C14.5782 10.2747 14.5889 9.87467 14.5889 9.384C14.5889 8.89333 14.5782 8.49867 14.5569 8.2C14.5355 7.48533 14.3435 6.95733 13.9809 6.616C13.6289 6.27467 13.1009 6.104 12.3969 6.104H10.7969V12.696H12.4769ZM28.9665 15C28.8172 15 28.6998 14.968 28.6145 14.904C28.5398 14.8293 28.4758 14.728 28.4225 14.6L25.3985 7.176L25.3665 7.032C25.3665 6.936 25.3985 6.856 25.4625 6.792C25.5372 6.71733 25.6278 6.68 25.7345 6.68H27.5425C27.7772 6.68 27.9318 6.792 28.0065 7.016L29.8145 11.928L31.6385 7.016C31.7132 6.792 31.8678 6.68 32.1025 6.68H33.9105C34.0065 6.68 34.0918 6.71733 34.1665 6.792C34.2412 6.856 34.2785 6.936 34.2785 7.032L34.2465 7.176L31.2225 14.6C31.1692 14.728 31.0998 14.8293 31.0145 14.904C30.9292 14.968 30.8118 15 30.6625 15H28.9665Z" fill="#09051A"/>
<path d="M38.368 15.16C37.504 15.16 36.7787 15.0373 36.192 14.792C35.616 14.5467 35.1893 14.2533 34.912 13.912C34.6347 13.5707 34.496 13.2667 34.496 13C34.496 12.8933 34.5333 12.808 34.608 12.744C34.6933 12.6693 34.784 12.632 34.88 12.632H36.704C36.768 12.632 36.8267 12.6587 36.88 12.712C37.008 12.7973 37.104 12.8667 37.168 12.92C37.4027 13.0907 37.6053 13.2187 37.776 13.304C37.9573 13.3787 38.176 13.416 38.432 13.416C38.7413 13.416 38.992 13.3573 39.184 13.24C39.3867 13.112 39.488 12.936 39.488 12.712C39.488 12.5307 39.4347 12.3867 39.328 12.28C39.232 12.1733 39.04 12.072 38.752 11.976C38.464 11.8693 38.0267 11.7573 37.44 11.64C36.5547 11.4587 35.872 11.1653 35.392 10.76C34.9227 10.344 34.688 9.78933 34.688 9.096C34.688 8.65867 34.8267 8.24267 35.104 7.848C35.3813 7.45333 35.792 7.13333 36.336 6.888C36.8907 6.64267 37.5467 6.52 38.304 6.52C39.0613 6.52 39.7227 6.63733 40.288 6.872C40.8533 7.10667 41.28 7.39467 41.568 7.736C41.8667 8.06667 42.016 8.37067 42.016 8.648C42.016 8.744 41.9787 8.82933 41.904 8.904C41.84 8.97867 41.76 9.016 41.664 9.016H40C39.9147 9.016 39.8347 8.98933 39.76 8.936C39.6213 8.86133 39.4987 8.78133 39.392 8.696C39.2107 8.55733 39.04 8.45067 38.88 8.376C38.72 8.30133 38.5227 8.264 38.288 8.264C38.0107 8.264 37.7867 8.328 37.616 8.456C37.456 8.584 37.376 8.74933 37.376 8.952C37.376 9.112 37.4187 9.24533 37.504 9.352C37.6 9.45867 37.792 9.56533 38.08 9.672C38.3787 9.768 38.816 9.86933 39.392 9.976C40.4267 10.1573 41.1787 10.4773 41.648 10.936C42.128 11.3947 42.368 11.9333 42.368 12.552C42.368 13.3413 42.016 13.976 41.312 14.456C40.608 14.9253 39.6267 15.16 38.368 15.16ZM44.1878 15C44.0811 15 43.9851 14.9627 43.8997 14.888C43.8251 14.8027 43.7878 14.7067 43.7878 14.6V4.04C43.7878 3.92267 43.8251 3.82667 43.8997 3.752C43.9851 3.67733 44.0811 3.64 44.1878 3.64H46.2358C46.3531 3.64 46.4491 3.67733 46.5238 3.752C46.5984 3.82667 46.6358 3.92267 46.6358 4.04V7.608C47.2758 6.88267 48.1184 6.52 49.1638 6.52C49.7824 6.52 50.3318 6.65867 50.8118 6.936C51.3024 7.21333 51.6864 7.624 51.9638 8.168C52.2411 8.712 52.3798 9.368 52.3798 10.136V14.6C52.3798 14.7067 52.3424 14.8027 52.2678 14.888C52.1931 14.9627 52.0971 15 51.9798 15H49.9158C49.8091 15 49.7131 14.9627 49.6278 14.888C49.5531 14.8027 49.5158 14.7067 49.5158 14.6V10.232C49.5158 9.73067 49.3931 9.34667 49.1478 9.08C48.9131 8.80267 48.5664 8.664 48.1078 8.664C47.6491 8.664 47.2864 8.80267 47.0198 9.08C46.7638 9.34667 46.6358 9.73067 46.6358 10.232V14.6C46.6358 14.7173 46.5984 14.8133 46.5238 14.888C46.4491 14.9627 46.3531 15 46.2358 15H44.1878ZM58.13 15.16C56.8073 15.16 55.7887 14.8453 55.074 14.216C54.3593 13.5867 53.97 12.7013 53.906 11.56C53.8953 11.4213 53.89 11.1813 53.89 10.84C53.89 10.4987 53.8953 10.2587 53.906 10.12C53.97 8.98933 54.37 8.10933 55.106 7.48C55.842 6.84 56.85 6.52 58.13 6.52C59.4207 6.52 60.434 6.84 61.17 7.48C61.906 8.10933 62.306 8.98933 62.37 10.12C62.3807 10.2587 62.386 10.4987 62.386 10.84C62.386 11.1813 62.3807 11.4213 62.37 11.56C62.306 12.7013 61.9167 13.5867 61.202 14.216C60.4873 14.8453 59.4633 15.16 58.13 15.16ZM58.13 13.208C58.5993 13.208 58.946 13.0693 59.17 12.792C59.394 12.504 59.522 12.0667 59.554 11.48C59.5647 11.3733 59.57 11.16 59.57 10.84C59.57 10.52 59.5647 10.3067 59.554 10.2C59.522 9.624 59.3887 9.192 59.154 8.904C58.93 8.616 58.5887 8.472 58.13 8.472C57.2447 8.472 56.7753 9.048 56.722 10.2L56.706 10.84L56.722 11.48C56.7433 12.0667 56.866 12.504 57.09 12.792C57.3247 13.0693 57.6713 13.208 58.13 13.208ZM68.2 15C65.992 15 64.888 13.9493 64.888 11.848V8.776H63.64C63.5227 8.776 63.4213 8.73867 63.336 8.664C63.2613 8.58933 63.224 8.49333 63.224 8.376V7.08C63.224 6.96267 63.2613 6.86667 63.336 6.792C63.4213 6.71733 63.5227 6.68 63.64 6.68H64.888V4.04C64.888 3.92267 64.9253 3.82667 65 3.752C65.0853 3.67733 65.1813 3.64 65.288 3.64H67.144C67.2613 3.64 67.3573 3.67733 67.432 3.752C67.5067 3.82667 67.544 3.92267 67.544 4.04V6.68H69.544C69.6613 6.68 69.7573 6.71733 69.832 6.792C69.9173 6.86667 69.96 6.96267 69.96 7.08V8.376C69.96 8.49333 69.9173 8.58933 69.832 8.664C69.7573 8.73867 69.6613 8.776 69.544 8.776H67.544V11.624C67.544 12.4133 67.848 12.808 68.456 12.808H69.688C69.8053 12.808 69.9013 12.8453 69.976 12.92C70.0507 12.9947 70.088 13.0907 70.088 13.208V14.6C70.088 14.7067 70.0507 14.8027 69.976 14.888C69.9013 14.9627 69.8053 15 69.688 15H68.2Z" fill="#09051A"/>
<path d="M71.3008 2.584C72.6021 2.59467 73.6421 2.99467 74.4208 3.784C75.2101 4.56267 75.6048 5.704 75.6048 7.208C75.6048 7.66667 75.6741 8.04533 75.8128 8.344C75.9514 8.64267 76.1754 8.872 76.4848 9.032L76.6768 9.128C76.8261 9.21333 76.9328 9.304 76.9968 9.4C77.0714 9.496 77.1088 9.61867 77.1088 9.768V10.36C77.1088 10.5093 77.0714 10.632 76.9968 10.728C76.9328 10.824 76.8261 10.9147 76.6768 11L76.4688 11.096C75.8928 11.3947 75.6048 11.9973 75.6048 12.904C75.6048 14.408 75.2154 15.5493 74.4368 16.328C73.6581 17.1173 72.6181 17.5173 71.3168 17.528H71.2208C71.1141 17.528 71.0288 17.496 70.9648 17.432C70.9008 17.368 70.8688 17.2827 70.8688 17.176V15.736C70.8688 15.6293 70.9008 15.544 70.9648 15.48C71.0288 15.416 71.1034 15.384 71.1888 15.384H71.2368C71.9194 15.3307 72.4048 15.1013 72.6928 14.696C72.9914 14.28 73.1408 13.608 73.1408 12.68C73.1408 12.0187 73.2474 11.4587 73.4608 11C73.6741 10.5413 73.9568 10.2267 74.3088 10.056C73.9674 9.90667 73.6848 9.592 73.4608 9.112C73.2474 8.632 73.1408 8.07733 73.1408 7.448C73.1408 6.53067 72.9914 5.864 72.6928 5.448C72.4048 5.032 71.9301 4.79733 71.2688 4.744H71.1888C71.1034 4.73333 71.0288 4.696 70.9648 4.632C70.9008 4.568 70.8688 4.488 70.8688 4.392V2.936C70.8688 2.84 70.9008 2.76 70.9648 2.696C71.0288 2.62133 71.1141 2.584 71.2208 2.584H71.3008Z" fill="#ADDBD6"/>
<mask id="path-3-inside-1_904_475" fill="white">
<rect x="19" y="7" width="6" height="2" rx="0.25"/>
</mask>
<rect x="19" y="7" width="6" height="2" rx="0.25" fill="#20164D" stroke="#E39494" stroke-width="2" mask="url(#path-3-inside-1_904_475)"/>
<mask id="path-4-inside-2_904_475" fill="white">
<rect x="19" y="10" width="6" height="2" rx="0.25"/>
</mask>
<rect x="19" y="10" width="6" height="2" rx="0.25" fill="#20164D" stroke="#E39494" stroke-width="2" mask="url(#path-4-inside-2_904_475)"/>
<mask id="path-5-inside-3_904_475" fill="white">
<rect x="19" y="13" width="6" height="2" rx="0.25"/>
</mask>
<rect x="19" y="13" width="6" height="2" rx="0.25" fill="#20164D" stroke="#E39494" stroke-width="2" mask="url(#path-5-inside-3_904_475)"/>
</svg>
